<svg class="svg-icon" style="width: 1em; height: 1em;vertical-align: middle;fill: currentColor;overflow: hidden;" viewBox="0 0 1024 1024" version="1.1" xmlns="http://www.w3.org/2000/svg"><path d="M957.44 983.04H125.952c-14.336 0-25.6-11.264-25.6-25.6s11.264-25.6 25.6-25.6H931.84V191.488c0-14.336 11.264-25.6 25.6-25.6s25.6 11.264 25.6 25.6V957.44c0 14.336-11.264 25.6-25.6 25.6z"  /><path d="M787.456 856.576h-629.76c-31.744 0-57.344-25.6-57.344-57.344v-219.136c0-31.744 25.6-57.344 57.344-57.344H327.68v51.2H157.696c-3.072 0-6.144 3.072-6.144 6.144v219.136c0 3.072 3.072 6.144 6.144 6.144h629.76c3.072 0 6.144-3.072 6.144-6.144v-219.136c0-3.072-3.072-6.144-6.144-6.144h-218.624v-51.2h218.624c31.744 0 57.344 25.6 57.344 57.344v219.136c0 31.744-25.6 57.344-57.344 57.344z"  /><path d="M447.488 692.224c-7.68 0-14.848-3.072-20.48-8.704L204.288 460.8c-11.776-11.776-11.776-29.696 0-41.472l288.256-288.256c5.632-5.632 12.8-8.704 20.48-8.704s14.848 3.072 20.48 8.704l222.72 222.72c11.776 11.776 11.776 30.208 0 41.984l-288.256 287.744c-5.632 6.144-12.8 8.704-20.48 8.704z m-15.36-44.544zM256 440.32l191.488 191.488 257.536-257.024-192-192L256 440.32z m482.304-62.464z m-17.92-17.92zM497.664 167.424z m30.72 0z"  /><path d="M457.728 507.392c-11.776 0-23.04-4.608-31.744-13.312l-61.44-61.952c-9.728-10.24-9.728-26.112 0-36.352 10.24-9.728 26.112-9.728 36.352 0l57.344 57.344 86.528-86.528c10.24-10.24 26.112-10.24 36.352 0s10.24 26.112 0 36.352L489.472 494.08c-8.704 9.216-19.968 13.312-31.744 13.312zM660.992 701.952H284.672c-14.336 0-25.6-11.264-25.6-25.6s11.264-25.6 25.6-25.6h376.32c14.336 0 25.6 11.264 25.6 25.6s-11.264 25.6-25.6 25.6z"  /></svg>